<svg data-v-423bf9ae="" xmlns="http://www.w3.org/2000/svg" viewBox="0 0 124121158.31893583 123768627" class="iconAbove"><!----><!----><!----><g data-v-423bf9ae="" id="100f6a18-13b8-4d3c-a81a-5b299a806bf8" fill="black" transform="matrix(5.479452150239503,0,0,5.479452150239503,62060425.16431745,123768562.0996571)"><path d="M7.01 2.25L6.26 4.16L6.26 4.16Q5.67 3.75 5.07 3.50L5.07 3.50L5.07 3.50Q4.47 3.25 3.98 3.25L3.98 3.25L3.98 3.25Q3.53 3.25 3.32 3.35L3.32 3.35L3.32 3.35Q3.11 3.46 3.11 3.82L3.11 3.82L3.11 3.82Q3.11 4.23 3.47 4.44L3.47 4.44L3.47 4.44Q3.84 4.65 4.42 4.84L4.42 4.84L4.42 4.84Q4.91 5.01 5.42 5.21L5.42 5.21L5.42 5.21Q5.92 5.42 6.33 5.75L6.33 5.75L6.33 5.75Q6.73 6.08 6.99 6.58L6.99 6.58L6.99 6.58Q7.24 7.08 7.24 7.84L7.24 7.84L7.24 7.84Q7.24 8.57 6.96 9.10L6.96 9.10L6.96 9.10Q6.68 9.63 6.22 9.97L6.22 9.97L6.22 9.97Q5.75 10.32 5.16 10.49L5.16 10.49L5.16 10.49Q4.56 10.65 3.92 10.65L3.92 10.65L3.92 10.65Q3.01 10.65 2.10 10.27L2.10 10.27L2.10 10.27Q1.19 9.88 0.49 9.13L0.49 9.13L1.30 7.24L1.30 7.24Q1.95 7.90 2.61 8.26L2.61 8.26L2.61 8.26Q3.28 8.62 3.88 8.62L3.88 8.62L3.88 8.62Q4.38 8.62 4.70 8.50L4.70 8.50L4.70 8.50Q5.03 8.37 5.04 7.97L5.04 7.97L5.04 7.97Q5.04 7.73 4.94 7.57L4.94 7.57L4.94 7.57Q4.83 7.41 4.64 7.30L4.64 7.30L4.64 7.30Q4.45 7.20 4.19 7.11L4.19 7.11L4.19 7.11Q3.92 7.03 3.63 6.93L3.63 6.93L3.63 6.93Q3.14 6.76 2.65 6.55L2.65 6.55L2.65 6.55Q2.17 6.34 1.78 6.00L1.78 6.00L1.78 6.00Q1.39 5.66 1.15 5.16L1.15 5.16L1.15 5.16Q0.91 4.66 0.91 3.93L0.91 3.93L0.91 3.93Q0.91 3.21 1.18 2.69L1.18 2.69L1.18 2.69Q1.44 2.17 1.88 1.84L1.88 1.84L1.88 1.84Q2.31 1.51 2.88 1.36L2.88 1.36L2.88 1.36Q3.44 1.20 4.05 1.20L4.05 1.20L4.05 1.20Q4.82 1.20 5.59 1.48L5.59 1.48L5.59 1.48Q6.36 1.76 7.01 2.25L7.01 2.25ZM11.61 10.65L11.61 10.65L11.61 10.65Q11.05 10.65 10.49 10.54L10.49 10.54L10.49 10.54Q9.94 10.43 9.50 10.08L9.50 10.08L9.50 10.08Q9.06 9.73 8.78 9.09L8.78 9.09L8.78 9.09Q8.50 8.44 8.50 7.36L8.50 7.36L8.50 3.22L10.84 3.22L10.84 6.52L10.84 6.52Q10.84 7.56 11.17 8.10L11.17 8.10L11.17 8.10Q11.51 8.64 12.14 8.64L12.14 8.64L12.14 8.64Q12.59 8.64 12.89 8.44L12.89 8.44L12.89 8.44Q13.20 8.25 13.39 7.90L13.39 7.90L13.39 7.90Q13.58 7.56 13.66 7.08L13.66 7.08L13.66 7.08Q13.75 6.61 13.75 6.05L13.75 6.05L13.75 3.22L16.27 3.22L16.27 10.50L14.38 10.50L13.96 9.13L13.96 9.13Q13.96 9.13 13.83 9.37L13.83 9.37L13.83 9.37Q13.71 9.60 13.43 9.89L13.43 9.89L13.43 9.89Q13.15 10.18 12.70 10.42L12.70 10.42L12.70 10.42Q12.25 10.65 11.61 10.65ZM22.58 10.65L22.58 10.65L22.58 10.65Q22.04 10.65 21.61 10.47L21.61 10.47L21.61 10.47Q21.18 10.29 20.87 10.07L20.87 10.07L20.87 10.07Q20.51 9.81 20.26 9.48L20.26 9.48L20.26 12.15L17.74 12.15L17.74 3.22L19.84 3.22L20.20 4.16L20.20 4.16Q20.45 3.85 20.80 3.60L20.80 3.60L20.80 3.60Q21.10 3.39 21.54 3.21L21.54 3.21L21.54 3.21Q21.98 3.04 22.58 3.04L22.58 3.04L22.58 3.04Q23.41 3.04 24.03 3.34L24.03 3.34L24.03 3.34Q24.65 3.64 25.07 4.14L25.07 4.14L25.07 4.14Q25.49 4.65 25.71 5.33L25.71 5.33L25.71 5.33Q25.93 6.01 25.93 6.76L25.93 6.76L25.93 6.76Q25.93 7.52 25.71 8.22L25.71 8.22L25.71 8.22Q25.49 8.92 25.07 9.46L25.07 9.46L25.07 9.46Q24.65 10.01 24.03 10.33L24.03 10.33L24.03 10.33Q23.41 10.65 22.58 10.65ZM21.78 4.94L21.78 4.94L21.78 4.94Q21.53 4.94 21.26 5.02L21.26 5.02L21.26 5.02Q20.99 5.10 20.76 5.30L20.76 5.30L20.76 5.30Q20.54 5.50 20.40 5.87L20.40 5.87L20.40 5.87Q20.26 6.23 20.26 6.80L20.26 6.80L20.26 6.80Q20.26 7.38 20.40 7.75L20.40 7.75L20.40 7.75Q20.54 8.12 20.76 8.34L20.76 8.34L20.76 8.34Q20.99 8.55 21.26 8.64L21.26 8.64L21.26 8.64Q21.53 8.72 21.78 8.72L21.78 8.72L21.78 8.72Q22.04 8.72 22.30 8.64L22.30 8.64L22.30 8.64Q22.57 8.55 22.79 8.34L22.79 8.34L22.79 8.34Q23.00 8.12 23.14 7.75L23.14 7.75L23.14 7.75Q23.28 7.38 23.28 6.80L23.28 6.80L23.28 6.80Q23.28 6.23 23.14 5.87L23.14 5.87L23.14 5.87Q23.00 5.50 22.79 5.30L22.79 5.30L22.79 5.30Q22.57 5.10 22.30 5.02L22.30 5.02L22.30 5.02Q22.04 4.94 21.78 4.94ZM31.26 10.65L31.26 10.65L31.26 10.65Q29.93 10.65 29.06 10.31L29.06 10.31L29.06 10.31Q28.20 9.97 27.68 9.43L27.68 9.43L27.68 9.43Q27.17 8.89 26.97 8.21L26.97 8.21L26.97 8.21Q26.77 7.53 26.77 6.86L26.77 6.86L26.77 6.86Q26.77 6.19 26.97 5.51L26.97 5.51L26.97 5.51Q27.17 4.83 27.63 4.28L27.63 4.28L27.63 4.28Q28.08 3.72 28.82 3.38L28.82 3.38L28.82 3.38Q29.55 3.04 30.60 3.04L30.60 3.04L30.60 3.04Q31.68 3.04 32.41 3.38L32.41 3.38L32.41 3.38Q33.14 3.72 33.57 4.28L33.57 4.28L33.57 4.28Q34.01 4.83 34.19 5.51L34.19 5.51L34.19 5.51Q34.37 6.19 34.37 6.86L34.37 6.86L34.37 7.56L29.33 7.56L29.33 7.56Q29.34 7.73 29.46 7.97L29.46 7.97L29.46 7.97Q29.58 8.22 29.83 8.44L29.83 8.44L29.83 8.44Q30.09 8.65 30.48 8.81L30.48 8.81L30.48 8.81Q30.88 8.96 31.46 8.96L31.46 8.96L31.46 8.96Q31.99 8.96 32.43 8.87L32.43 8.87L32.43 8.87Q32.87 8.78 33.18 8.67L33.18 8.67L33.18 8.67Q33.54 8.53 33.81 8.36L33.81 8.36L33.81 10.07L33.81 10.07Q33.81 10.08 33.59 10.17L33.59 10.17L33.59 10.17Q33.38 10.26 33.02 10.37L33.02 10.37L33.02 10.37Q32.66 10.47 32.20 10.56L32.20 10.56L32.20 10.56Q31.74 10.65 31.26 10.65ZM29.33 6.13L32.10 6.13L32.10 6.13Q32.10 5.89 32.03 5.63L32.03 5.63L32.03 5.63Q31.96 5.36 31.79 5.14L31.79 5.14L31.79 5.14Q31.63 4.91 31.36 4.77L31.36 4.77L31.36 4.77Q31.09 4.62 30.70 4.62L30.70 4.62L30.70 4.62Q30.31 4.62 30.04 4.77L30.04 4.77L30.04 4.77Q29.78 4.91 29.62 5.14L29.62 5.14L29.62 5.14Q29.47 5.36 29.40 5.63L29.40 5.63L29.40 5.63Q29.33 5.89 29.33 6.13L29.33 6.13ZM40.92 3.04L40.80 5.22L40.80 5.22Q39.98 5.04 39.48 5.24L39.48 5.24L39.48 5.24Q38.98 5.43 38.69 5.81L38.69 5.81L38.69 5.81Q38.40 6.19 38.30 6.64L38.30 6.64L38.30 6.64Q38.19 7.10 38.19 7.41L38.19 7.41L38.19 10.50L35.70 10.50L35.70 3.22L37.62 3.22L38.00 4.55L38.00 4.55Q38.00 4.55 38.12 4.31L38.12 4.31L38.12 4.31Q38.25 4.07 38.58 3.79L38.58 3.79L38.58 3.79Q38.92 3.51 39.49 3.28L39.49 3.28L39.49 3.28Q40.05 3.04 40.92 3.04L40.92 3.04ZM49.36 3.22L46.79 6.99L46.79 6.99Q47.08 7.39 47.42 7.84L47.42 7.84L47.42 7.84Q47.75 8.29 48.10 8.75L48.10 8.75L48.10 8.75Q48.44 9.21 48.77 9.66L48.77 9.66L48.77 9.66Q49.10 10.11 49.39 10.50L49.39 10.50L46.61 10.50L44.79 8.08L44.25 8.08L44.25 10.50L41.78 10.50L41.78 1.34L44.25 1.34L44.25 5.89L44.77 5.89L44.77 5.89Q44.77 5.89 44.91 5.70L44.91 5.70L44.91 5.70Q45.05 5.50 45.25 5.20L45.25 5.20L45.25 5.20Q45.46 4.90 45.70 4.56L45.70 4.56L45.70 4.56Q45.93 4.21 46.13 3.91L46.13 3.91L46.13 3.91Q46.33 3.61 46.47 3.42L46.47 3.42L46.47 3.42Q46.61 3.22 46.61 3.22L46.61 3.22L49.36 3.22ZM53.27 3.02L53.27 3.02L53.27 3.02Q53.94 3.02 54.63 3.21L54.63 3.21L54.63 3.21Q55.33 3.39 56 3.81L56 3.81L55.15 5.21L55.15 5.21Q55.03 5.14 54.80 5.03L54.80 5.03L54.80 5.03Q54.56 4.93 54.27 4.84L54.27 4.84L54.27 4.84Q53.98 4.75 53.67 4.69L53.67 4.69L53.67 4.69Q53.35 4.63 53.10 4.66L53.10 4.66L53.10 4.66Q52.85 4.69 52.69 4.82L52.69 4.82L52.69 4.82Q52.53 4.94 52.53 5.22L52.53 5.22L52.53 5.22Q52.53 5.43 52.86 5.57L52.86 5.57L52.86 5.57Q53.19 5.71 53.61 5.85L53.61 5.85L53.61 5.85Q54.03 5.98 54.47 6.16L54.47 6.16L54.47 6.16Q54.92 6.34 55.29 6.62L55.29 6.62L55.29 6.62Q55.66 6.90 55.90 7.31L55.90 7.31L55.90 7.31Q56.14 7.73 56.14 8.33L56.14 8.33L56.14 8.33Q56.14 8.95 55.89 9.39L55.89 9.39L55.89 9.39Q55.65 9.83 55.24 10.11L55.24 10.11L55.24 10.11Q54.84 10.39 54.29 10.53L54.29 10.53L54.29 10.53Q53.75 10.67 53.16 10.67L53.16 10.67L53.16 10.67Q52.35 10.67 51.49 10.44L51.49 10.44L51.49 10.44Q50.64 10.22 49.97 9.65L49.97 9.65L50.83 8.16L50.83 8.16Q50.99 8.33 51.26 8.48L51.26 8.48L51.26 8.48Q51.53 8.64 51.85 8.75L51.85 8.75L51.85 8.75Q52.16 8.86 52.50 8.92L52.50 8.92L52.50 8.92Q52.84 8.97 53.10 8.95L53.10 8.95L53.10 8.95Q53.37 8.92 53.54 8.81L53.54 8.81L53.54 8.81Q53.72 8.69 53.72 8.46L53.72 8.46L53.72 8.46Q53.72 8.13 53.47 7.94L53.47 7.94L53.47 7.94Q53.21 7.74 52.84 7.59L52.84 7.59L52.84 7.59Q52.46 7.45 52.01 7.31L52.01 7.31L52.01 7.31Q51.56 7.17 51.18 6.93L51.18 6.93L51.18 6.93Q50.81 6.69 50.55 6.31L50.55 6.31L50.55 6.31Q50.30 5.94 50.30 5.33L50.30 5.33L50.30 5.33Q50.30 4.73 50.55 4.30L50.55 4.30L50.55 4.30Q50.81 3.86 51.23 3.58L51.23 3.58L51.23 3.58Q51.65 3.29 52.18 3.16L52.18 3.16L52.18 3.16Q52.71 3.02 53.27 3.02Z"></path></g><!----><g data-v-423bf9ae="" id="55b57c82-105c-4eeb-b84c-5964e4f2ed92" transform="matrix(1172.6918402777778,0,0,1172.6918402777778,29424.164441637695,-29353.199710212648)" stroke="none" fill="black"><path d="M51159.09 21790.2c0 346.67-527.1 346.67-527.1 0-12.7-3463.18 1106.18-6690.63 3225.17-9425.97 4988.16-6439.13 13163.87-8416.5 21004.43-7507.75 8337.8 966.37 17333.74 5370.05 22134.33 12474.18 194.16 287.86-244.07 583.43-438.22 295.58C91842.41 10648.36 82988.09 6330.32 74801.65 5381.5c-7648.79-886.52-15655.72 1017.03-20526.95 7305.19-2046.06 2641.19-3127.88 5759.37-3115.61 9103.51zM3491.68 8116.92c0-2356.48-1060.41-3516.77-3516.77-3516.77V3541.8c2356.48 0 3516.77-1060.41 3516.77-3516.77h1058.35c0 2356.48 1060.41 3516.77 3516.77 3516.77v1058.35c-2456.36 0-3516.77 1160.29-3516.77 3516.77H3491.68zm529.17-2524.19c361.43-633.23 888.53-1160.33 1521.76-1521.76-633.22-361.41-1160.34-888.54-1521.76-1521.75-361.4 633.21-888.54 1160.35-1521.75 1521.75 633.21 361.42 1160.34 888.54 1521.75 1521.76zm17318.58 7247.57c517.6-1061.15 1381.33-1924.88 2442.48-2442.48-1061.15-517.61-1924.87-1381.33-2442.48-2442.48-517.62 1061.15-1381.33 1924.86-2442.48 2442.48 1061.15 517.61 1924.87 1381.33 2442.48 2442.48zm529.17 2294.6h-1058.34c0-2313.27-1894.64-4207.91-4207.91-4207.91V9868.65c2313.27 0 4207.91-1894.64 4207.91-4207.91h1058.34c0 2313.27 1894.64 4207.91 4207.91 4207.91v1058.34c-2313.27 0-4207.91 1894.64-4207.91 4207.91zM11414.63 30896.85c0-3851.44-2291.93-6192.91-6192.91-6192.91v-1058.36c3851.44 0 6192.91-2291.93 6192.91-6192.91h1058.36c0 3851.44 2291.93 6192.91 6192.91 6192.91v1058.36c-3900.98 0-6192.91 2341.47-6192.91 6192.91h-1058.36zm529.18-3136.99c682.63-1609.24 1975.86-2902.47 3585.1-3585.1-1609.24-682.63-2902.47-1975.86-3585.1-3585.1-682.63 1609.24-1975.86 2902.47-3585.1 3585.1 1609.24 682.63 2902.47 1975.86 3585.1 3585.1zm63515.3 63349.28c0 2456.36 1160.29 3516.77 3516.77 3516.77v1058.35c-2456.36 0-3516.77 1160.29-3516.77 3516.77h-1058.35c0-2356.48-1060.41-3516.77-3516.77-3516.77v-1058.35c2456.36 0 3516.77-1160.29 3516.77-3516.77h1058.35zm-529.17 2524.19c-361.44 633.24-888.52 1160.31-1521.76 1521.75 633.23 361.43 1160.33 888.53 1521.76 1521.76 361.41-633.22 888.54-1160.34 1521.75-1521.76-633.23-361.43-1160.33-888.51-1521.75-1521.75zm17847.74-9542.17c0 2313.27 1894.64 4207.91 4207.91 4207.91v1058.34c-2313.27 0-4207.91 1894.64-4207.91 4207.91h-1058.34c0-2313.27-1894.64-4207.91-4207.91-4207.91v-1058.34c2313.27 0 4207.91-1894.64 4207.91-4207.91h1058.34zm-529.17 2294.61c-517.61 1061.14-1381.33 1924.86-2442.47 2442.47 1061.15 517.61 1924.86 1381.33 2442.47 2442.48 517.63-1061.16 1381.31-1924.86 2442.48-2442.48-1061.15-517.61-1924.87-1381.32-2442.48-2442.47zm-8866.44-18056.56c0 3851.44 2291.93 6192.91 6192.91 6192.91v1058.36c-3900.98 0-6192.91 2341.47-6192.91 6192.91h-1058.36c0-3851.44-2291.93-6192.91-6192.91-6192.91v-1058.36c3900.98 0 6192.91-2341.47 6192.91-6192.91h1058.36zm-529.18 3136.99c-682.63 1609.24-1975.86 2902.47-3585.1 3585.1 1609.24 682.63 2902.47 1975.86 3585.1 3585.1 682.63-1609.24 1975.86-2902.47 3585.1-3585.1-1609.24-682.63-2902.47-1975.86-3585.1-3585.1zM38598.2 80310.72c10.86-346.64 537.96-330.16 527.1 16.54-160.35 4579.35-3178.4 8541.77-6826.5 11070.38-285.13 196.87-584.85-237.21-299.72-434.08 3506.33-2430.34 6444.8-6246.28 6599.12-10652.84zm6937.96-2408.6c434.21 1063.31 815.73 2149.31 1077.13 3252.24 267.94 1130.52 415.16 2291.8 373.39 3484.94-177.82 5078.94-2886.95 9942.84-7123.2 13700.89-4209.41 3734.23-9934.6 6382.66-16177.74 7060.13-4708.34 510.91-9047.82-171.67-12613.91-1759.02-3700.75-1647.29-6570.43-4269.8-8164.13-7548.91-1299.93-2674.68-2803.52-7993.41-2701.15-10918.13 312.3-8918.84 8029.24-15970.06 15891.28-18973.12 649.85-247.42 1026.03 740.65 376.2 988.06C9021.1 70035.98 1557.69 76727.5 1260.75 85207.34c-123.56 3529.36 1089.76 6731.85 3382.59 9278.69 1929.44 2143.23 4481.77 3670.21 7199.57 4592.78 3319.49 1126.83 6958.6 1395.48 10414.94 1020.43 6020.22-653.27 11537.39-3203.93 15590.67-6799.67 4026.44-3571.91 6600.47-8168.93 6767.69-12944.37 25.81-736.85-5.88-1478.88-99.73-2210.27-78.74-622.58 812.01-828.47 1019.68-242.81zM3858.54 95633.51c1482.77 3050.86 4169.52 5498.32 7643.23 7044.55 3400.1 1513.46 7552.37 2162.67 12072.35 1672.2 6020.23-653.28 11537.4-3203.95 15590.7-6799.69 4048.21-3591.23 7398.71-9135.52 6679.81-14736.84-191.75-1494.24-157.51-1601.28-422.68-154.66-777.96 4244.2-3274.75 8236.48-6874.77 11430.12-4209.4 3734.23-9934.57 6382.65-16177.71 7060.11-3563.08 386.63-7305.14 110.33-10733.3-1027.61-2783.53-923.97-5391.58-2436.92-7432.12-4558.31-653.93-679.83-981.72-1238.87-345.51 70.13zm20815.83-21737.94l2639.34 3317.94 5491.35 471.88c1419.65 122.01 2181.72 548.99 993.82 1850.01l-4013.74 4085.21 279.33 4491.71c87.75 1411.47-285.41 1779.8-1691.44 1473.94l-4536.66-1026.04c-788.2-178.03-919.36-246.43-1649.23 71.21l-5281.88 2299c-412.06 179.9-926.52 502.96-1325.98 163.49-379.81-322.7-189.69-891.24-132.45-1331.13l619.88-4760.87-2913.81-2514.47c-1686.78-1455.69-2038.82-2130.12 531.64-2801.29l4309.15-1294.95c932.31-280 943.38-295 1495.65-1043.43l2504.63-3392.57c1149.78-1394.34 1530.11-1505.69 2680.4-59.64zm-885.05 584.12c-602.3-708.14-408.04-617.41-947.85 105.97l-2504.63 3390.5c-757.27 1026.25-772.45 1046.81-2041.37 1427.91l-4095.75 1230.1c-1165.71 322.28-1274.54 363.91-354.55 1057.01l3340.92 2883.04c-233.89 1796.14-466.51 3592.49-701.65 5388.46l5281.02-2298.63c960.24-417.9 1097.1-405.45 2162.41-164.86l4344.85 981.58c810.25 195.19 767.33 172.56 712.16-714.74l-282.87-4548.77 3695.09-3761.14c737.65-736.28 715.18-672.47-377.06-776.53l-5248.57-451.02-2982.15-3748.88zM4512.69 85289.97c-10.86 346.64-537.96 330.16-527.1-16.54 279.45-7980.09 7018.8-13652.4 14121.95-16022.08 328.99-110.11 496.4 390.11 167.42 500.22-6885.28 2296.99-13490.9 7788.91-13762.27 15538.4zm27873.02-29599.45l2087.76-4119.91-524.17-888.93-2350.84 4719.69c-157.73 316.68-180.42 362.89 251.51 329.98l535.74-40.83zm2689.42-4139.48l-2073.92 4092.57 5127.66-390.77c1158.38-88.29 1104.13-153.88 2143.15 492.32l4753.52 2956.89c685.65 435.18 655.57 308.67 860.21-367.46l1470.98-5307.25L52317.65 50567l-4543.48-1913.2c-726.26-2111.6-1475.67-4213.3-2219.17-6321.72-1614.83 1107.8-3236.6 2209.12-4845.46 3325.16-1030.21 714.55-1181.73 819.64-2644.38 757.01l-6128.98-262.44c1045.57 1803.03 2081.46 3605.84 3138.95 5399.23zm-3452.93-5940.66l6463.64 276.77c1287.2 55.12 1420.13-37.08 2323.98-663.99 1648.31-1143.23 3309.06-2271.81 4963.36-3406.69-62.15-176.25-142.11-410.15-228.46-613-183.59-431.31-167.32-396.08-587.97-127.29-1484.9 948.77-2947.64 2014.05-4404.59 3013.55-1181.05 810.63-1204.71 826.85-2694.51 763.06l-5005.29-214.31c-1518.19-68.52-1512.01-95.34-830.16 971.9zm16172.35 1476.71l403.53 1173.28 4743.24 1997.32 563.41-280.19c348.08-183.07 348.1-180.17-163.34-412.15l-5546.84-2478.26zm12937.31 7554.44c123.7-323.55 615.67-135.46 491.96 188.1-2087.29 5420.89-7652.38 8675.31-13124.19 9780.13-339.86 67.98-443.22-448.78-103.36-516.76 5286.86-1067.48 10716.44-4207.57 12735.59-9451.47zm5365.08-50.54c167.52-583.28 1042.01-459.23 1034.08 152.22 38.84 2246.6-291.11 4346.76-927.05 6286.27-1553.55 4738.14-4924.7 8518.03-9199.91 11133.76-12911.47 7899.65-36311.94 2932.2-41472.17-11201.38-1482.54-4060.53-1357.38-12373.07 255.98-16563.22 3971.09-10313.36 16065.35-14942.55 26417.69-14503.94 693.31 27.18 652.01 1081.38-41.34 1054.2-9884.81-418.79-21591.03 3953.32-25392.43 13825.94-1855.98 4820.27-1142 9865.78 1697.96 14170.8 7398.87 11215.73 24578.36 13142.24 36143.59 7957.42 5388.39-2415.68 9791.45-6460.88 11483.6-12312.07zm-50518.28 883.24c39.9 1716.49 311.41 3322.66 883.11 4950.18C21250.59 74057.36 44056.73 78847.21 56454.22 71262c4848.94-2966.75 8428.77-7460.46 9376.5-13128.42-2263.54 4459.72-6184.54 7669.18-10787.44 9732.72-12043.94 5399.44-29764.1 3315.18-37454.09-8341.88-850.41-1289.11-1525.82-2646.73-2010.53-4050.19zM46365.85 41454.7l1606.82 4556.64 5798.66 2590.77c1425.95 637.09 2087.46 1308.43 375.45 2237.09l-5899.33 2924.78-1439.6 5194.04-2.06 12.4c-427.14 1411.31-1006.85 1443.23-2212.31 706.64l-4.13-2.07-4875.43-3032.73c-778.92-414.6-562.92-407.03-1506.51-335.22l-6576.64 501.2c-470.37 36.34-1144.1 187.47-1423.16-285.4-260.78-441.89 146.66-995.44 356.35-1416.47l2469.43-4957.8-2369.69-4086.4c-237.58-475.73-756.32-1174.58-712.35-1722.04 60.62-754.63 705.88-899.67 2419.94-761.98l5127.7 220.44c1139.99 48.81 1158.02 36.45 2057.85-581.16l3981.32-2729.85c1783.11-1209.78 2194.46-828.53 2827.69 967.12zm-26390.8 12988.01c100.59 331.74-403.78 484.65-504.36 152.96-2304.14-7587.93 2527.9-14824.56 9254.67-18157.1 4410.74-2185.16 9752.19-2963.01 14949.97-2382.78 345.29 38.06 287.43 563.08-57.88 525.02-5101.84-569.52-10339.43 191.37-14658.51 2331.12-6491.33 3215.91-11211.81 10193.85-8983.89 17530.78zm44461.97-27079.62l3720.52-3908.55-318.34-1292.9-4233.78 4509.9c-401.14 409.37-412.77 417.2 30.89 515.05l800.71 176.5zm4302.2-3754.11l-3699.85 3886.85 5868.04 1293.15c1416.33 312.08 1344.52 307.67 2156.37 1229.28l4367.3 4960.63c458.63 534.57 561.65 585.04 1023.51-153.71l2406.07-3822.57c1009.55-1603.97 694.15-1550.63 2674.7-1885.69l4692.9-793.98-4463.88-3691.89c-103.82-2588.14-196.9-5161.37-320.8-7748.86l-6138.06 1957.17c-1664.28 530.6-1794.69 682.71-3522.83 79.75l-6773-2363.16c562.36 2357.67 1149.93 4699 1729.53 7053.03zm-1874.9-7662.5l7092.01 2474.47c1570.84 548.09 1720.5 384.66 3190.03-83.87l6271.14-1999.6c-10.46-218.37-20.92-494.7-48.26-746.41-91.16-838.98-433.57-524.36-1275.92-260.54l-5281.3 1682.59c-1545.89 493.31-1576.84 503.17-3171.54-53.22-2183.55-761.86-4658.47-1443.31-6481.99-2262.75-335.33-150.68-633.14-236.46-521.04 273.98 71.16 323.99 149.81 652.26 226.87 975.35zm17353.99 6839.77l63.66 1587.02 4634.73 3833.19 894.25-150.78c569.28-85.79 448.16-70.93-205.11-614.15l-5387.53-4655.28zm11825.26 12413.11c211.8-274.26 629.35 48.18 417.54 322.46-4079.99 5266.77-11273.78 6995.48-17645.94 6396.44-345.27-31.25-297.79-556.27 47.54-525.02 6186.34 581.57 13215.63-1075.26 17180.86-6193.88zm8671.84-949.94c-1297.53 3763.04-2128.25 7310.89-4647.17 10562.58-4065.81 5248.5-10657.11 8324.58-18026.99 9055.04-7334.55 726.96-15449.38-868.49-22605.95-4958.66-5395.03-3083.4-9483.54-7149.07-12056.85-11579.15-2665.44-4588.67-3706.33-9569.31-2894.24-14262.77 675.89-3906.12 2960.2-10428.85 5479.75-13681.27 4065.83-5248.51 10657.14-8324.58 18027-9055.04 7334.55-726.95 15449.38 868.5 22605.94 4958.66 6475.59 3700.97 12149.85 9517.36 14330.09 16776.49 1231.98 4101.91 1209 8305.1-211.58 12184.12zm-42892.14 8182.67c6963.15 3979.62 14851.99 5532.62 21977.53 4826.37 6498.85-644.14 12355.07-3166.91 16274.44-7440.01 1615.03-1760.8 2890.94-3809.81 3694.72-6064.56 1292.14-3624.71 1296.53-7549.96 144.17-11386.81-2102.87-7001.56-7600.26-12593-13842.27-16160.49-6963.15-3979.62-14852-5532.62-21977.54-4826.38-7090.21 702.75-13415.51 3641.59-17295.28 8649.9-2942.96 3799.07-4084.76 8301.65-3525.4 12890.71 1032.42 8469.99 7377.1 15411.97 14549.63 19511.27zM45526.01 23244.22c-769.54 4447.52 225.16 9181.53 2766.08 13555.85C50774 41072.8 54730.13 45001.4 59960.34 47990.6c6963.16 3979.63 14852.01 5532.63 21977.55 4826.38 7090.22-702.75 13415.52-3641.58 17295.27-8649.9 800.33-1033.15 1417.9-2086.07 1932.27-3167.16 878.85-1847.2 1063.55-1979.47-263.93-448.06-4016.2 4633.21-10224.55 7104.13-16997.34 7756.66-7334.55 726.96-15449.37-868.49-22605.93-4958.65-7394.64-4226.23-13870.67-11357.78-15042.68-20053.46-302.7-2245.73-205.7-3079.5-729.54-52.19zm38937.82-7117.4l273.75 5713.67 5558.66 4803.16c1304.79 1127.44 1826.86 2009.99-293.13 2449.19L83709 30158.72c-1574.98 266.38-1128.65 92.65-1955.38 1406.13l-2566.93 4078.62c-906.6 1367.8-1496.8 1204.89-2543.95 35.03l-4372.7-4961.58c-636.01-747.47-505.05-653.33-1590.01-894.42l-7408.43-1632.61c-1046.82-198.77-1968.58-437.24-571.19-2096.87l4382.91-4668.75-1377.48-5846.13c-903.87-3166.97 1670.89-1852.73 2703.13-1561.04l5578.77 1946.48c1264.38 441.15 1288.77 433.38 2505.96 44.96l5285.42-1686.73c2407.31-808.02 2579.74-408.85 2684.71 1805.01z"></path></g><!----></svg>