<svg data-v-423bf9ae="" xmlns="http://www.w3.org/2000/svg" viewBox="0 0 304.9314996193576 60" class="font"><!----><!----><!----><g data-v-423bf9ae="" id="2ffc9e13-495d-46bb-aa72-32d59f43706c" fill="white" transform="matrix(5.479452150239503,0,0,5.479452150239503,-2.6849333438817666,-6.575342126312307)"><path d="M7.01 2.25L6.26 4.16L6.26 4.16Q5.67 3.75 5.07 3.50L5.07 3.50L5.07 3.50Q4.47 3.25 3.98 3.25L3.98 3.25L3.98 3.25Q3.53 3.25 3.32 3.35L3.32 3.35L3.32 3.35Q3.11 3.46 3.11 3.82L3.11 3.82L3.11 3.82Q3.11 4.23 3.47 4.44L3.47 4.44L3.47 4.44Q3.84 4.65 4.42 4.84L4.42 4.84L4.42 4.84Q4.91 5.01 5.42 5.21L5.42 5.21L5.42 5.21Q5.92 5.42 6.33 5.75L6.33 5.75L6.33 5.75Q6.73 6.08 6.99 6.58L6.99 6.58L6.99 6.58Q7.24 7.08 7.24 7.84L7.24 7.84L7.24 7.84Q7.24 8.57 6.96 9.10L6.96 9.10L6.96 9.10Q6.68 9.63 6.22 9.97L6.22 9.97L6.22 9.97Q5.75 10.32 5.16 10.49L5.16 10.49L5.16 10.49Q4.56 10.65 3.92 10.65L3.92 10.65L3.92 10.65Q3.01 10.65 2.10 10.27L2.10 10.27L2.10 10.27Q1.19 9.88 0.49 9.13L0.49 9.13L1.30 7.24L1.30 7.24Q1.95 7.90 2.61 8.26L2.61 8.26L2.61 8.26Q3.28 8.62 3.88 8.62L3.88 8.62L3.88 8.62Q4.38 8.62 4.70 8.50L4.70 8.50L4.70 8.50Q5.03 8.37 5.04 7.97L5.04 7.97L5.04 7.97Q5.04 7.73 4.94 7.57L4.94 7.57L4.94 7.57Q4.83 7.41 4.64 7.30L4.64 7.30L4.64 7.30Q4.45 7.20 4.19 7.11L4.19 7.11L4.19 7.11Q3.92 7.03 3.63 6.93L3.63 6.93L3.63 6.93Q3.14 6.76 2.65 6.55L2.65 6.55L2.65 6.55Q2.17 6.34 1.78 6.00L1.78 6.00L1.78 6.00Q1.39 5.66 1.15 5.16L1.15 5.16L1.15 5.16Q0.91 4.66 0.91 3.93L0.91 3.93L0.91 3.93Q0.91 3.21 1.18 2.69L1.18 2.69L1.18 2.69Q1.44 2.17 1.88 1.84L1.88 1.84L1.88 1.84Q2.31 1.51 2.88 1.36L2.88 1.36L2.88 1.36Q3.44 1.20 4.05 1.20L4.05 1.20L4.05 1.20Q4.82 1.20 5.59 1.48L5.59 1.48L5.59 1.48Q6.36 1.76 7.01 2.25L7.01 2.25ZM11.61 10.65L11.61 10.65L11.61 10.65Q11.05 10.65 10.49 10.54L10.49 10.54L10.49 10.54Q9.94 10.43 9.50 10.08L9.50 10.08L9.50 10.08Q9.06 9.73 8.78 9.09L8.78 9.09L8.78 9.09Q8.50 8.44 8.50 7.36L8.50 7.36L8.50 3.22L10.84 3.22L10.84 6.52L10.84 6.52Q10.84 7.56 11.17 8.10L11.17 8.10L11.17 8.10Q11.51 8.64 12.14 8.64L12.14 8.64L12.14 8.64Q12.59 8.64 12.89 8.44L12.89 8.44L12.89 8.44Q13.20 8.25 13.39 7.90L13.39 7.90L13.39 7.90Q13.58 7.56 13.66 7.08L13.66 7.08L13.66 7.08Q13.75 6.61 13.75 6.05L13.75 6.05L13.75 3.22L16.27 3.22L16.27 10.50L14.38 10.50L13.96 9.13L13.96 9.13Q13.96 9.13 13.83 9.37L13.83 9.37L13.83 9.37Q13.71 9.60 13.43 9.89L13.43 9.89L13.43 9.89Q13.15 10.18 12.70 10.42L12.70 10.42L12.70 10.42Q12.25 10.65 11.61 10.65ZM22.58 10.65L22.58 10.65L22.58 10.65Q22.04 10.65 21.61 10.47L21.61 10.47L21.61 10.47Q21.18 10.29 20.87 10.07L20.87 10.07L20.87 10.07Q20.51 9.81 20.26 9.48L20.26 9.48L20.26 12.15L17.74 12.15L17.74 3.22L19.84 3.22L20.20 4.16L20.20 4.16Q20.45 3.85 20.80 3.60L20.80 3.60L20.80 3.60Q21.10 3.39 21.54 3.21L21.54 3.21L21.54 3.21Q21.98 3.04 22.58 3.04L22.58 3.04L22.58 3.04Q23.41 3.04 24.03 3.34L24.03 3.34L24.03 3.34Q24.65 3.64 25.07 4.14L25.07 4.14L25.07 4.14Q25.49 4.65 25.71 5.33L25.71 5.33L25.71 5.33Q25.93 6.01 25.93 6.76L25.93 6.76L25.93 6.76Q25.93 7.52 25.71 8.22L25.71 8.22L25.71 8.22Q25.49 8.92 25.07 9.46L25.07 9.46L25.07 9.46Q24.65 10.01 24.03 10.33L24.03 10.33L24.03 10.33Q23.41 10.65 22.58 10.65ZM21.78 4.94L21.78 4.94L21.78 4.94Q21.53 4.94 21.26 5.02L21.26 5.02L21.26 5.02Q20.99 5.10 20.76 5.30L20.76 5.30L20.76 5.30Q20.54 5.50 20.40 5.87L20.40 5.87L20.40 5.87Q20.26 6.23 20.26 6.80L20.26 6.80L20.26 6.80Q20.26 7.38 20.40 7.75L20.40 7.75L20.40 7.75Q20.54 8.12 20.76 8.34L20.76 8.34L20.76 8.34Q20.99 8.55 21.26 8.64L21.26 8.64L21.26 8.64Q21.53 8.72 21.78 8.72L21.78 8.72L21.78 8.72Q22.04 8.72 22.30 8.64L22.30 8.64L22.30 8.64Q22.57 8.55 22.79 8.34L22.79 8.34L22.79 8.34Q23.00 8.12 23.14 7.75L23.14 7.75L23.14 7.75Q23.28 7.38 23.28 6.80L23.28 6.80L23.28 6.80Q23.28 6.23 23.14 5.87L23.14 5.87L23.14 5.87Q23.00 5.50 22.79 5.30L22.79 5.30L22.79 5.30Q22.57 5.10 22.30 5.02L22.30 5.02L22.30 5.02Q22.04 4.94 21.78 4.94ZM31.26 10.65L31.26 10.65L31.26 10.65Q29.93 10.65 29.06 10.31L29.06 10.31L29.06 10.31Q28.20 9.97 27.68 9.43L27.68 9.43L27.68 9.43Q27.17 8.89 26.97 8.21L26.97 8.21L26.97 8.21Q26.77 7.53 26.77 6.86L26.77 6.86L26.77 6.86Q26.77 6.19 26.97 5.51L26.97 5.51L26.97 5.51Q27.17 4.83 27.63 4.28L27.63 4.28L27.63 4.28Q28.08 3.72 28.82 3.38L28.82 3.38L28.82 3.38Q29.55 3.04 30.60 3.04L30.60 3.04L30.60 3.04Q31.68 3.04 32.41 3.38L32.41 3.38L32.41 3.38Q33.14 3.72 33.57 4.28L33.57 4.28L33.57 4.28Q34.01 4.83 34.19 5.51L34.19 5.51L34.19 5.51Q34.37 6.19 34.37 6.86L34.37 6.86L34.37 7.56L29.33 7.56L29.33 7.56Q29.34 7.73 29.46 7.97L29.46 7.97L29.46 7.97Q29.58 8.22 29.83 8.44L29.83 8.44L29.83 8.44Q30.09 8.65 30.48 8.81L30.48 8.81L30.48 8.81Q30.88 8.96 31.46 8.96L31.46 8.96L31.46 8.96Q31.99 8.96 32.43 8.87L32.43 8.87L32.43 8.87Q32.87 8.78 33.18 8.67L33.18 8.67L33.18 8.67Q33.54 8.53 33.81 8.36L33.81 8.36L33.81 10.07L33.81 10.07Q33.81 10.08 33.59 10.17L33.59 10.17L33.59 10.17Q33.38 10.26 33.02 10.37L33.02 10.37L33.02 10.37Q32.66 10.47 32.20 10.56L32.20 10.56L32.20 10.56Q31.74 10.65 31.26 10.65ZM29.33 6.13L32.10 6.13L32.10 6.13Q32.10 5.89 32.03 5.63L32.03 5.63L32.03 5.63Q31.96 5.36 31.79 5.14L31.79 5.14L31.79 5.14Q31.63 4.91 31.36 4.77L31.36 4.77L31.36 4.77Q31.09 4.62 30.70 4.62L30.70 4.62L30.70 4.62Q30.31 4.62 30.04 4.77L30.04 4.77L30.04 4.77Q29.78 4.91 29.62 5.14L29.62 5.14L29.62 5.14Q29.47 5.36 29.40 5.63L29.40 5.63L29.40 5.63Q29.33 5.89 29.33 6.13L29.33 6.13ZM40.92 3.04L40.80 5.22L40.80 5.22Q39.98 5.04 39.48 5.24L39.48 5.24L39.48 5.24Q38.98 5.43 38.69 5.81L38.69 5.81L38.69 5.81Q38.40 6.19 38.30 6.64L38.30 6.64L38.30 6.64Q38.19 7.10 38.19 7.41L38.19 7.41L38.19 10.50L35.70 10.50L35.70 3.22L37.62 3.22L38.00 4.55L38.00 4.55Q38.00 4.55 38.12 4.31L38.12 4.31L38.12 4.31Q38.25 4.07 38.58 3.79L38.58 3.79L38.58 3.79Q38.92 3.51 39.49 3.28L39.49 3.28L39.49 3.28Q40.05 3.04 40.92 3.04L40.92 3.04ZM49.36 3.22L46.79 6.99L46.79 6.99Q47.08 7.39 47.42 7.84L47.42 7.84L47.42 7.84Q47.75 8.29 48.10 8.75L48.10 8.75L48.10 8.75Q48.44 9.21 48.77 9.66L48.77 9.66L48.77 9.66Q49.10 10.11 49.39 10.50L49.39 10.50L46.61 10.50L44.79 8.08L44.25 8.08L44.25 10.50L41.78 10.50L41.78 1.34L44.25 1.34L44.25 5.89L44.77 5.89L44.77 5.89Q44.77 5.89 44.91 5.70L44.91 5.70L44.91 5.70Q45.05 5.50 45.25 5.20L45.25 5.20L45.25 5.20Q45.46 4.90 45.70 4.56L45.70 4.56L45.70 4.56Q45.93 4.21 46.13 3.91L46.13 3.91L46.13 3.91Q46.33 3.61 46.47 3.42L46.47 3.42L46.47 3.42Q46.61 3.22 46.61 3.22L46.61 3.22L49.36 3.22ZM53.27 3.02L53.27 3.02L53.27 3.02Q53.94 3.02 54.63 3.21L54.63 3.21L54.63 3.21Q55.33 3.39 56 3.81L56 3.81L55.15 5.21L55.15 5.21Q55.03 5.14 54.80 5.03L54.80 5.03L54.80 5.03Q54.56 4.93 54.27 4.84L54.27 4.84L54.27 4.84Q53.98 4.75 53.67 4.69L53.67 4.69L53.67 4.69Q53.35 4.63 53.10 4.66L53.10 4.66L53.10 4.66Q52.85 4.69 52.69 4.82L52.69 4.82L52.69 4.82Q52.53 4.94 52.53 5.22L52.53 5.22L52.53 5.22Q52.53 5.43 52.86 5.57L52.86 5.57L52.86 5.57Q53.19 5.71 53.61 5.85L53.61 5.85L53.61 5.85Q54.03 5.98 54.47 6.16L54.47 6.16L54.47 6.16Q54.92 6.34 55.29 6.62L55.29 6.62L55.29 6.62Q55.66 6.90 55.90 7.31L55.90 7.31L55.90 7.31Q56.14 7.73 56.14 8.33L56.14 8.33L56.14 8.33Q56.14 8.95 55.89 9.39L55.89 9.39L55.89 9.39Q55.65 9.83 55.24 10.11L55.24 10.11L55.24 10.11Q54.84 10.39 54.29 10.53L54.29 10.53L54.29 10.53Q53.75 10.67 53.16 10.67L53.16 10.67L53.16 10.67Q52.35 10.67 51.49 10.44L51.49 10.44L51.49 10.44Q50.64 10.22 49.97 9.65L49.97 9.65L50.83 8.16L50.83 8.16Q50.99 8.33 51.26 8.48L51.26 8.48L51.26 8.48Q51.53 8.64 51.85 8.75L51.85 8.75L51.85 8.75Q52.16 8.86 52.50 8.92L52.50 8.92L52.50 8.92Q52.84 8.97 53.10 8.95L53.10 8.95L53.10 8.95Q53.37 8.92 53.54 8.81L53.54 8.81L53.54 8.81Q53.72 8.69 53.72 8.46L53.72 8.46L53.72 8.46Q53.72 8.13 53.47 7.94L53.47 7.94L53.47 7.94Q53.21 7.74 52.84 7.59L52.84 7.59L52.84 7.59Q52.46 7.45 52.01 7.31L52.01 7.31L52.01 7.31Q51.56 7.17 51.18 6.93L51.18 6.93L51.18 6.93Q50.81 6.69 50.55 6.31L50.55 6.31L50.55 6.31Q50.30 5.94 50.30 5.33L50.30 5.33L50.30 5.33Q50.30 4.73 50.55 4.30L50.55 4.30L50.55 4.30Q50.81 3.86 51.23 3.58L51.23 3.58L51.23 3.58Q51.65 3.29 52.18 3.16L52.18 3.16L52.18 3.16Q52.71 3.02 53.27 3.02Z"></path></g><!----><!----></svg>